<?xml version="1.0" ?><svg data-name="Layer 1" id="Layer_1" viewBox="0 0 512 512" xmlns="http://www.w3.org/2000/svg"><path d="M279.8,163.45a72.52,72.52,0,1,0,51.28,21.24A72.59,72.59,0,0,0,279.8,163.45Zm0,134.73A62.22,62.22,0,1,1,342,236,62.29,62.29,0,0,1,279.8,298.18Z"/><path d="M378.55,292.17a112.68,112.68,0,0,0,11.25-27.73l33.72-3.75a5.14,5.14,0,0,0,4.58-5.12v-41a5.14,5.14,0,0,0-4.58-5.12l-34.21-3.78a112.34,112.34,0,0,0-11.24-26.73l21.16-26.46a5.15,5.15,0,0,0-.38-6.86l-29-29a5.17,5.17,0,0,0-6.87-.38l-26.42,21.15a119.91,119.91,0,0,0-27.35-11.16l-3.78-34a5.14,5.14,0,0,0-5.12-4.58h-41a5.16,5.16,0,0,0-5.13,4.58l-3.77,34a112.81,112.81,0,0,0-27.58,11.48L196,116.22a5.17,5.17,0,0,0-6.87.38l-29,29a5.15,5.15,0,0,0-.38,6.86l21.53,26.92A109.12,109.12,0,0,0,170,206.56l-33.94,3.78a5.15,5.15,0,0,0-4.59,5.12v41a5.14,5.14,0,0,0,4.59,5.11L170,265.35a108.38,108.38,0,0,0,11.24,27.19l-21.53,26.93a5.15,5.15,0,0,0,.38,6.86l29,29a5.16,5.16,0,0,0,6.87.38l26.82-21.45a112.77,112.77,0,0,0,27.59,11.46l3.77,34a5.16,5.16,0,0,0,5.13,4.58h41a5.14,5.14,0,0,0,5.12-4.58l3.78-34A112.94,112.94,0,0,0,337.26,334l26.36,21.08a5.15,5.15,0,0,0,6.86-.38l29-29a5.16,5.16,0,0,0,.38-6.86Zm-12.09,52-23.26-18.6-1.17-1.4a5.14,5.14,0,0,0-6.73-1A102.37,102.37,0,0,1,303,336.64a5.15,5.15,0,0,0-4,5v2.47L295.7,374H263.9l-3.32-29.83v-2.47a5.15,5.15,0,0,0-4-5l-.94-.22a102.35,102.35,0,0,1-30.56-12.82,5.16,5.16,0,0,0-6,.39l-25.92,20.8L170.67,322.3l19-23.74,1.93-2.51a5.17,5.17,0,0,0,.3-5.85,99.06,99.06,0,0,1-12.62-30.44,5.14,5.14,0,0,0-4-3.9l-3.33-.64-30.11-3.36V220.07l30.4-3.39,2.86-.48a5.17,5.17,0,0,0,4.17-3.93,99.34,99.34,0,0,1,12.64-30.55,5.15,5.15,0,0,0-.31-5.87l-20.9-26.22,22.48-22.48L216.68,146l2.34,2a5.15,5.15,0,0,0,6.3.3l.73-.52a102.62,102.62,0,0,1,30.53-12.45,5.15,5.15,0,0,0,4-5V127.8L263.9,98h31.8L299,127.81v2.47a5.15,5.15,0,0,0,4,5,108.08,108.08,0,0,1,31.44,12.79,5.17,5.17,0,0,0,6.16-.59l25.2-20.34,22.48,22.48L369.38,173.3l-.07.09-1.69,2.21a5.44,5.44,0,0,0-.81,4,5.51,5.51,0,0,0,1.16,2.53,102.56,102.56,0,0,1,12.3,29.73,5.15,5.15,0,0,0,4.93,4l2.48,0,30.12,3.35V251l-30,3.34-2.61.25a5.16,5.16,0,0,0-4.53,4,102.56,102.56,0,0,1-12.88,31.64,5.14,5.14,0,0,0,.78,6.39l1.69,1.65,18.73,23.42Z"/><path d="M448.44,114.1c-21.22-42.31-67.25-92.49-166.18-92.49h-2.5C207,22.23,152.9,42.16,118.86,80.84,74.27,131.51,77,200.47,80.3,227.76a39.12,39.12,0,0,1-4.1,22.53L42.43,316.41a22.55,22.55,0,0,0,12.34,31.42L85.41,359A21.53,21.53,0,0,1,99.29,376l6.12,39.87A45.9,45.9,0,0,0,157,454.22l64.89-9.12v40.14a5.15,5.15,0,0,0,10.3,0V439.17a5.11,5.11,0,0,0-1.77-3.88,5.18,5.18,0,0,0-4.09-1.22L155.57,444a35.59,35.59,0,0,1-40-29.72l-6.13-39.87A31.82,31.82,0,0,0,89,349.36l-30.64-11.2a12.25,12.25,0,0,1-6.7-17.07L85.38,255a49.57,49.57,0,0,0,5.16-28.43c-3.1-25.92-5.79-91.34,36.06-138.9,32-36.38,83.58-55.13,153.25-55.72,75.6-.67,130.58,29.38,159.38,86.8,44.32,88.36,16.64,223.36-37,294a5.24,5.24,0,0,0-1,3.12v69.39a5.15,5.15,0,1,0,10.3,0V417.57C466.11,344.41,495.68,208.28,448.44,114.1Z"/></svg>